<svg width="42" height="34" viewBox="0 0 42 34" fill="none" xmlns="http://www.w3.org/2000/svg">
<g clip-path="url(#clip0_148_9)">
<path d="M1.6542 11.2411C0.75215 11.8073 0.47283 13.0089 1.03027 13.9252C1.58774 14.8412 2.77089 15.1248 3.67291 14.5588L1.6542 11.2411ZM8.79291 11.3451C9.69495 10.779 9.97427 9.57733 9.41683 8.66122C8.85937 7.74508 7.67621 7.46139 6.7742 8.02754L8.79291 11.3451ZM9.70355 9.68634C9.70355 8.6094 8.84393 7.73634 7.78355 7.73634C6.72318 7.73634 5.86355 8.6094 5.86355 9.68634H9.70355ZM15.4636 33.05C16.5239 33.05 17.3836 32.1769 17.3836 31.1C17.3836 30.0231 16.5239 29.15 15.4636 29.15V33.05ZM6.7742 8.02754C5.87226 8.59385 5.59283 9.7957 6.15043 10.7117C6.70802 11.6278 7.89097 11.9114 8.79291 11.3451L6.7742 8.02754ZM18.4383 2.99654L17.6063 1.2391C17.5454 1.26884 17.4862 1.30181 17.4286 1.3379L18.4383 2.99654ZM22.7289 2.99654L23.7385 1.3379C23.6809 1.30181 23.6218 1.26884 23.5609 1.2391L22.7289 2.99654ZM32.3739 11.345C33.2758 11.9113 34.459 11.6278 35.0166 10.7117C35.5742 9.7957 35.2951 8.59401 34.3932 8.0277L32.3739 11.345ZM13.5436 31.1C13.5436 32.1769 14.4032 33.05 15.4636 33.05C16.5239 33.05 17.3836 32.1769 17.3836 31.1H13.5436ZM23.7836 31.1C23.7836 32.1769 24.6432 33.05 25.7036 33.05C26.7639 33.05 27.6236 32.1769 27.6236 31.1H23.7836ZM15.4636 29.15C14.4032 29.15 13.5436 30.0231 13.5436 31.1C13.5436 32.1769 14.4032 33.05 15.4636 33.05V29.15ZM25.7036 33.05C26.7639 33.05 27.6236 32.1769 27.6236 31.1C27.6236 30.0231 26.7639 29.15 25.7036 29.15V33.05ZM25.7036 29.15C24.6432 29.15 23.7836 30.0231 23.7836 31.1C23.7836 32.1769 24.6432 33.05 25.7036 33.05V29.15ZM35.3036 9.68634C35.3036 8.6094 34.4439 7.73634 33.3836 7.73634C32.3232 7.73634 31.4636 8.6094 31.4636 9.68634H35.3036ZM34.3932 8.0277C33.4911 7.46155 32.3079 7.74508 31.7503 8.66122C31.1927 9.57733 31.472 10.7788 32.3739 11.345L34.3932 8.0277ZM37.4942 14.5588C38.3963 15.1248 39.5793 14.8412 40.1369 13.9252C40.6944 13.0089 40.4149 11.8073 39.513 11.2411L37.4942 14.5588ZM3.67291 14.5588L8.79291 11.3451L6.7742 8.02754L1.6542 11.2411L3.67291 14.5588ZM5.86355 9.68634V27.2H9.70355V9.68634H5.86355ZM5.86355 27.2C5.86355 28.8058 6.26486 30.4464 7.61116 31.6101C8.88113 32.7078 10.6258 33.05 12.5196 33.05V29.15C10.9574 29.15 10.334 28.8424 10.1 28.6399C9.94225 28.5036 9.70355 28.1942 9.70355 27.2H5.86355ZM12.5196 33.05H15.4636V29.15H12.5196V33.05ZM8.79291 11.3451L19.448 4.65519L17.4286 1.3379L6.7742 8.02754L8.79291 11.3451ZM19.2703 4.75399C20.1002 4.34867 21.0669 4.34867 21.8969 4.75399L23.5609 1.2391C21.679 0.320284 19.4881 0.320284 17.6063 1.2391L19.2703 4.75399ZM21.7192 4.65519L32.3739 11.345L34.3932 8.0277L23.7385 1.3379L21.7192 4.65519ZM17.3836 31.1V28.5H13.5436V31.1H17.3836ZM17.3836 28.5C17.3836 26.705 18.8162 25.25 20.5836 25.25V21.35C16.6954 21.35 13.5436 24.5511 13.5436 28.5H17.3836ZM20.5836 25.25C22.351 25.25 23.7836 26.705 23.7836 28.5H27.6236C27.6236 24.5511 24.4717 21.35 20.5836 21.35V25.25ZM23.7836 28.5V31.1H27.6236V28.5H23.7836ZM15.4636 33.05H25.7036V29.15H15.4636V33.05ZM25.7036 33.05H28.6476V29.15H25.7036V33.05ZM28.6476 33.05C30.5415 33.05 32.2861 32.7078 33.5559 31.6101C34.9022 30.4464 35.3036 28.8058 35.3036 27.2H31.4636C31.4636 28.1942 31.225 28.5036 31.0673 28.6399C30.833 28.8424 30.2097 29.15 28.6476 29.15V33.05ZM35.3036 27.2V9.68634H31.4636V27.2H35.3036ZM32.3739 11.345L37.4942 14.5588L39.513 11.2411L34.3932 8.0277L32.3739 11.345Z" fill="black"/>
</g>
<defs>
<clipPath id="clip0_148_9">
<rect width="41" height="34" fill="white" transform="translate(0.0551758)"/>
</clipPath>
</defs>
</svg>
