<svg width="56" height="48" viewBox="0 0 56 48" fill="none" xmlns="http://www.w3.org/2000/svg">
<g clip-path="url(#clip0_148_7)">
<path fill-rule="evenodd" clip-rule="evenodd" d="M46.4941 0.758899C47.7378 0.728655 48.7879 1.58514 49.0479 2.75011H53.417C54.8433 2.75031 55.9998 3.9066 56 5.33312V40.1036C55.9999 41.1704 55.3691 41.9923 54.625 42.4298C53.8865 42.8639 52.8969 43.0085 51.9854 42.6036C49.99 41.717 46.6245 40.6183 42.2012 40.6183C38.5173 40.6183 35.1688 41.7091 32.7178 42.8224C32.5941 42.8786 32.4723 42.9343 32.3535 42.9903C30.9147 44.2196 29.8087 45.5378 28.8447 46.7648C28.6078 47.0663 28.2448 47.2422 27.8613 47.2423C27.4777 47.2423 27.1149 47.0664 26.8779 46.7648C25.8001 45.3929 24.5452 43.9068 22.8457 42.5587C20.4617 41.5436 17.3562 40.6183 13.9658 40.6183C9.5423 40.6183 6.17694 41.717 4.18164 42.6036C3.2701 43.0086 2.28053 42.8639 1.54199 42.4298C0.79787 41.9923 0.167064 41.1704 0.166992 40.1036V5.33312C0.167168 3.90665 1.32353 2.75029 2.75 2.75011H6.67773C6.94118 1.59862 7.97661 0.728333 9.22852 0.758899C14.9651 0.899185 19.0866 1.92687 22.1865 3.46105C24.6791 4.69471 26.4583 6.23096 27.8613 7.80284C29.2643 6.23101 31.0436 4.69466 33.5361 3.46105C36.6361 1.92693 40.7576 0.899155 46.4941 0.758899ZM46.5557 3.25792C41.0852 3.39166 37.3409 4.36782 34.6445 5.70226C32.1303 6.94667 30.4553 8.53752 29.1113 10.1876V41.8683C29.6355 41.5656 30.266 41.2237 30.9883 40.8732C31.7209 40.2668 32.5335 39.676 33.4434 39.1251C36.5454 37.2471 40.6919 35.8633 46.4844 35.6739C46.5328 35.6723 46.5682 35.6525 46.5889 35.6319C46.5984 35.6224 46.6037 35.6137 46.6064 35.6075C46.6087 35.6023 46.6113 35.5943 46.6113 35.5821V3.31163C46.6113 3.29918 46.6092 3.29146 46.6074 3.28722C46.6053 3.28224 46.6014 3.2772 46.5967 3.27257C46.5919 3.26794 46.5865 3.26405 46.5811 3.26183C46.5764 3.25998 46.5685 3.25768 46.5557 3.25792ZM9.14941 3.26085C9.14489 3.26273 9.1382 3.26634 9.13184 3.27257C9.11895 3.28537 9.11145 3.3024 9.11133 3.32433V35.5841C9.11133 35.5963 9.11318 35.6037 9.11523 35.6085C9.11773 35.6143 9.12322 35.6224 9.13281 35.6319C9.1531 35.652 9.18858 35.6723 9.23828 35.6739C15.0308 35.8633 19.1773 37.2471 22.2793 39.1251C22.9439 39.5275 23.5563 39.9516 24.124 40.3868C24.2456 40.4402 24.366 40.4927 24.4834 40.546C25.293 40.9138 26.0071 41.2845 26.6113 41.6193V10.1876C25.2674 8.53747 23.5924 6.94672 21.0781 5.70226C18.3818 4.36777 14.6375 3.39169 9.16699 3.25792C9.15831 3.25775 9.15296 3.25943 9.14941 3.26085ZM2.75 5.25011C2.70424 5.25028 2.66717 5.28736 2.66699 5.33312V40.1036C2.66704 40.1162 2.67234 40.1938 2.80957 40.2745C2.95287 40.3585 3.09268 40.3525 3.16699 40.3194C4.9221 39.5396 7.57322 38.6357 10.96 38.2775C10.3808 38.2289 9.78029 38.1924 9.15723 38.172C7.7973 38.1276 6.61133 37.044 6.61133 35.5841V5.25011H2.75ZM49.1113 35.5821C49.1113 37.0396 47.9277 38.1274 46.5654 38.172C46.0351 38.1893 45.5209 38.2201 45.0225 38.2579C48.4978 38.6023 51.2142 39.5255 53.001 40.3194C53.0756 40.3522 53.2153 40.3586 53.3584 40.2745C53.4953 40.1939 53.5 40.1162 53.5 40.1036V5.33312C53.4998 5.28744 53.4627 5.25031 53.417 5.25011H49.1113V35.5821Z" fill="black"/>
</g>
<defs>
<clipPath id="clip0_148_7">
<rect width="56" height="48" fill="white"/>
</clipPath>
</defs>
</svg>
