<svg width="57" height="48" viewBox="0 0 57 48" fill="none" xmlns="http://www.w3.org/2000/svg">
<g clip-path="url(#clip0_148_18)">
<path fill-rule="evenodd" clip-rule="evenodd" d="M35.5557 0.888672C36.4893 0.925734 37.371 1.3289 38.0098 2.01074C38.6485 2.69273 38.9928 3.59913 38.9688 4.5332V8H47.8584C48.3247 8.00205 48.7715 8.18727 49.1026 8.51562L56.3741 15.7871C56.7022 16.1182 56.8877 16.5651 56.8897 17.0312V43.5557C56.8897 44.4986 56.5144 45.4026 55.8477 46.0693C55.181 46.736 54.2769 47.1112 53.334 47.1113H3.55569C2.61277 47.1113 1.70877 46.7361 1.04202 46.0693C0.375279 45.4026 5.07405e-05 44.4986 2.92757e-05 43.5557V17.0488C-0.0013114 16.8149 0.0434062 16.5828 0.131865 16.3662C0.220278 16.1498 0.351046 15.9531 0.515654 15.7871L7.76956 8.51562C7.9356 8.35098 8.1322 8.22028 8.34866 8.13184C8.56521 8.04339 8.79737 7.99867 9.03128 8H17.7783V4.5332C17.7471 4.07769 17.8075 3.62021 17.9561 3.18848C18.1047 2.75684 18.3387 2.35926 18.6436 2.01953C18.9486 1.67981 19.3183 1.40414 19.7315 1.20996C20.1446 1.0158 20.5927 0.906668 21.0489 0.888672H35.5557ZM3.55569 27.4307V43.5557H53.334V27.4307H36.1641C36.0489 27.632 35.9224 27.829 35.7813 28.0186C35.1177 28.9094 33.8336 30.2357 32.6133 31.4375C31.3744 32.6576 30.1385 33.8102 29.5293 34.373C29.4734 34.4247 29.3881 34.5036 29.3057 34.5684C29.2121 34.6419 29.0661 34.7432 28.8653 34.8057C28.6031 34.8871 28.3202 34.8873 28.0576 34.8057C27.8569 34.7432 27.7109 34.6419 27.6172 34.5684C27.5346 34.5034 27.4497 34.4239 27.3936 34.3721C26.7844 33.8091 25.5491 32.6572 24.3106 31.4375C23.0902 30.2356 21.8052 28.9094 21.1416 28.0186C21.0002 27.8287 20.8737 27.6318 20.7588 27.4307H3.55569ZM27.6934 22.3438C26.4677 20.8486 24.618 20.5417 23.2744 21.7393C21.7921 23.0608 21.586 25.2654 22.7461 26.8232C23.3038 27.572 24.4782 28.7948 25.7139 30.0117C26.7585 31.0405 27.8049 32.0221 28.461 32.6318C29.117 32.0221 30.1651 31.0408 31.21 30.0117C32.4455 28.7949 33.6191 27.5719 34.1768 26.8232C35.3453 25.2543 35.1506 23.0425 33.6592 21.749C32.9259 21.1131 32.1302 20.9251 31.3867 21.0381C30.6245 21.154 29.8508 21.599 29.2403 22.3438C29.0504 22.5754 28.7664 22.7099 28.4668 22.71C28.1673 22.71 27.8833 22.5754 27.6934 22.3438ZM9.77835 11.5557L3.55569 17.7773V24H20.0283C20.1672 22.6046 20.8123 21.2555 21.9434 20.2471C24.0199 18.3959 26.6526 18.7635 28.4639 20.29C29.2238 19.6438 30.1247 19.2078 31.0869 19.0615C32.4183 18.8593 33.8006 19.2243 34.9698 20.2383C36.1291 21.2439 36.7745 22.5991 36.9073 24H53.334V17.7773L47.1114 11.5557H9.77835ZM21.334 4.44434V8H35.5557V4.44434H21.334Z" fill="black"/>
</g>
<defs>
<clipPath id="clip0_148_18">
<rect width="57" height="48" fill="white"/>
</clipPath>
</defs>
</svg>
